HIERARCHY
ROOT Hips
{
  OFFSET 0 0 0
  CHANNELS 6 Xposition Yposition Zposition Zrotation Yrotation Xrotation
  JOINT LeftThigh
  {
    OFFSET 8.759831 0 -6.164326
    CHANNELS 3 Zrotation Yrotation Xrotation
    JOINT LeftLeg
    {
      OFFSET 0 0 -44.123596
      CHANNELS 3 Zrotation Yrotation Xrotation
      JOINT LeftFoot
      {
        OFFSET 0 0 -40.997191
        CHANNELS 3 Zrotation Yrotation Xrotation
        End Site
        {
          OFFSET 0 -13.883989 -5.217556
        }
      }
    }
  }
  JOINT RightThigh
  {
    OFFSET -8.759831 0 -6.164326
    CHANNELS 3 Zrotation Yrotation Xrotation
    JOINT RightLeg
    {
      OFFSET 0 0 -44.123596
      CHANNELS 3 Zrotation Yrotation Xrotation
      JOINT RightFoot
      {
        OFFSET 0 0 -40.997191
        CHANNELS 3 Zrotation Yrotation Xrotation
        End Site
        {
          OFFSET 0 -13.883989 -5.217556
        }
      }
    }
  }
  JOINT SpineLow
  {
    OFFSET 0 0 4.91573
    CHANNELS 3 Zrotation Yrotation Xrotation
    JOINT SpineMid
    {
      OFFSET 0 0 13.436657
      CHANNELS 3 Zrotation Yrotation Xrotation
      JOINT Chest
      {
        OFFSET 0 0 13.436657
        CHANNELS 3 Zrotation Yrotation Xrotation
        JOINT LeftShoulder
        {
          OFFSET 7.865169 1.474719 9.831461
          CHANNELS 3 Zrotation Yrotation Xrotation
          JOINT LeftArm
          {
            OFFSET 9.536517 0 4.424157
            CHANNELS 3 Zrotation Yrotation Xrotation
            JOINT LeftForearm
            {
              OFFSET 0 0 26.845787
              CHANNELS 3 Zrotation Yrotation Xrotation
              JOINT LeftHand
              {
                OFFSET 0 0 26.247051
                CHANNELS 3 Zrotation Yrotation Xrotation
              }
            }
          }
        }
        JOINT RightShoulder
        {
          OFFSET -7.865169 1.474719 9.831461
          CHANNELS 3 Zrotation Yrotation Xrotation
          JOINT RightArm
          {
            OFFSET -9.536517 0 4.424157
            CHANNELS 3 Zrotation Yrotation Xrotation
            JOINT RightForearm
            {
              OFFSET 0 0 -26.845787
              CHANNELS 3 Zrotation Yrotation Xrotation
              JOINT RightHand
              {
                OFFSET 0 0 -26.247051
                CHANNELS 3 Zrotation Yrotation Xrotation
              }
            }
          }
        }
        JOINT Neck
        {
          OFFSET 0 0 15.730337
          CHANNELS 3 Zrotation Yrotation Xrotation
          JOINT Head
          {
            OFFSET 0 0 11.797753
            CHANNELS 3 Zrotation Yrotation Xrotation
            End Site
            {
              OFFSET 0 0 7.747191
            }
          }
        }
      }
    }
  }
}
MOTION
Frames: 16
Frame Time: 0.01
14.448831  95.643921  -3.646642  179.623886  11.176116  83.038455  2.785069  -15.684626  5.598464  11.856746  0.113442  6.602986  -6.408589  15.588074  0.449031  -9.729692  17.001333  3.21251  -8.892746  -1.593231  8.134704  4.254802  -13.230824  2.155838  -0.16939  0.015174  -0.455896  -0.463277  0.038282  -1.246245  -0.463277  0.038282  -1.246245  -7.419517  8.975946  22.492687  92.563299  44.537241  145.383639  -6.780943  -0.060655  42.246494  68.385429  4.783423  6.604605  17.084568  -20.456679  14.553455  48.674174  55.763728  -5.97088  -4.081693  -8.280526  -43.091778  73.999566  8.062821  -0.933311  3.961002  -4.06808  9.206412  3.031695  -2.99237  6.928645  
14.470238  95.647568  -3.650489  179.620439  11.209446  83.04588  2.774683  -15.68847  5.609501  11.830264  0.118395  6.596957  -6.345796  15.600703  0.456191  -9.692357  16.98326  3.192354  -8.900813  -1.581925  8.17074  4.254218  -13.223026  2.130576  -0.169875  0.015103  -0.453964  -0.464602  0.038091  -1.240966  -0.464602  0.038091  -1.240966  -7.420557  8.973624  22.469828  92.620228  44.53582  145.428495  -6.77024  -0.070701  42.178449  68.406774  4.806233  6.552994  17.108939  -20.45479  14.535705  48.689275  55.766944  -5.943681  -4.081096  -8.267941  -43.071906  73.998012  8.067545  -0.952484  3.975421  -4.061905  9.189325  3.042301  -2.987628  6.9159  
14.487087  95.65081  -3.656706  179.61681  11.225903  83.048962  2.772863  -15.679542  5.618518  11.826926  0.109921  6.585761  -6.323461  15.605327  0.463556  -9.697564  16.975203  3.182126  -8.866541  -1.580565  8.18292  4.240128  -13.21544  2.117743  -0.168162  0.014624  -0.453309  -0.459909  0.036818  -1.239168  -0.459909  0.036818  -1.239168  -7.434046  8.970396  22.45693  92.603884  44.536011  145.426448  -6.760638  -0.081378  42.113277  68.39757  4.784801  6.603777  17.112893  -20.453115  14.524192  48.66082  55.76173  -5.961947  -4.078643  -8.268161  -43.044777  74.032491  8.041696  -0.91694  3.964753  -4.059278  9.182258  3.034214  -2.985862  6.910517  
14.504394  95.6548  -3.649996  179.606861  11.246192  83.053699  2.7323  -15.668533  5.641316  11.849559  0.10172  6.571221  -6.251182  15.619273  0.466494  -9.663519  16.966712  3.157255  -8.89387  -1.569678  8.221463  4.24957  -13.20993  2.10005  -0.171732  0.017018  -0.450962  -0.46971  0.043312  -1.232774  -0.46971  0.043312  -1.232773  -7.409647  8.960836  22.429494  92.623956  44.532043  145.450151  -6.777713  -0.077873  42.023885  68.436854  4.801105  6.566607  17.143575  -20.45074  14.502494  48.674401  55.761362  -5.947208  -4.084322  -8.262366  -43.031338  74.020545  8.026978  -0.926505  3.966098  -4.054075  9.165753  3.035035  -2.982043  6.898127  
14.514601  95.655899  -3.658777  179.602394  11.262166  83.05735  2.729748  -15.656754  5.658011  11.874134  0.082728  6.545818  -6.256336  15.636957  0.484372  -9.665002  16.970341  3.146291  -8.878402  -1.578512  8.237539  4.249873  -13.199828  2.089582  -0.170393  0.016914  -0.450478  -0.466048  0.043058  -1.231448  -0.466048  0.043058  -1.231447  -7.423432  8.957264  22.421062  92.590611  44.537388  145.429275  -6.783303  -0.07915  41.954678  68.424235  4.784701  6.610427  17.143755  -20.445324  14.491584  48.646232  55.752602  -5.975374  -4.099366  -8.26626  -42.998312  74.054669  7.988751  -0.904527  3.956892  -4.049189  9.157792  3.028007  -2.978564  6.89207  
14.516127  95.660057  -3.626889  179.595366  11.302924  83.06853  2.737564  -15.649181  5.672754  11.967977  0.075665  6.514367  -6.293734  15.639952  0.516264  -9.60223  16.967385  3.113685  -8.853248  -1.603377  8.243178  4.185376  -13.177201  2.115103  -0.166183  0.017596  -0.449992  -0.454554  0.045004  -1.230122  -0.454554  0.045004  -1.230122  -7.426214  8.960244  22.396961  92.631425  44.555419  145.444245  -6.748861  -0.069702  41.895587  68.40467  4.837336  6.519249  17.129786  -20.436135  14.477217  48.692271  55.756658  -5.95386  -4.109445  -8.271224  -42.989638  74.02522  7.961754  -0.907477  3.943714  -4.037273  9.143777  3.017858  -2.969909  6.881412  
14.53149  95.662651  -3.634353  179.58807  11.324715  83.073645  2.745789  -15.636984  5.690467  11.987562  0.072751  6.483413  -6.296869  15.637268  0.550325  -9.596741  16.965773  3.096971  -8.823641  -1.607092  8.264965  4.170008  -13.165151  2.101779  -0.165117  0.017147  -0.449128  -0.451631  0.043802  -1.227757  -0.451631  0.043802  -1.227757  -7.437485  8.964244  22.38436  92.606199  44.570589  145.416614  -6.756862  -0.061325  41.824107  68.384136  4.83179  6.559763  17.137269  -20.427081  14.457893  48.663137  55.751171  -5.977712  -4.122913  -8.28156  -42.964928  74.053967  7.921849  -0.907803  3.941479  -4.026281  9.130743  3.015934  -2.961778  6.871569  
14.554846  95.670418  -3.623334  179.577791  11.379531  83.087972  2.812381  -15.63023  5.679012  12.046425  0.076643  6.451235  -6.371376  15.623747  0.602412  -9.530611  16.937803  3.064715  -8.797115  -1.592848  8.285255  4.140231  -13.153295  2.0933  -0.16004  0.017487  -0.448799  -0.437761  0.044826  -1.226856  -0.437761  0.044826  -1.226856  -7.460016  8.97069  22.365143  92.657955  44.589334  145.438009  -6.764595  -0.042965  41.728066  68.398437  4.855788  6.531057  17.146442  -20.418692  14.437251  48.67313  55.759124  -5.960608  -4.123882  -8.28625  -42.98257  74.024396  7.886537  -0.954869  3.94665  -4.010215  9.112478  3.019457  -2.949762  6.857828  
14.58095  95.677269  -3.62731  179.560205  11.407313  83.086315  2.822947  -15.605718  5.690118  12.020596  0.073035  6.431334  -6.324152  15.620071  0.64235  -9.520104  16.931689  3.050765  -8.747365  -1.583919  8.303816  4.108405  -13.144284  2.080142  -0.158463  0.017508  -0.446067  -0.43345  0.044932  -1.219389  -0.43345  0.044932  -1.219389  -7.471004  8.969992  22.348501  92.627092  44.612333  145.412566  -6.791955  -0.009656  41.641067  68.39721  4.837375  6.606514  17.158631  -20.409044  14.414517  48.63966  55.759391  -5.980688  -4.121028  -8.288935  -42.97421  74.047131  7.828764  -0.971291  3.95131  -3.996734  9.096059  3.022648  -2.939682  6.845481  
14.606561  95.68634  -3.627929  179.534066  11.47205  83.09533  2.901733  -15.576428  5.67565  11.952633  0.058042  6.419653  -6.276493  15.623244  0.674147  -9.455341  16.925846  3.024326  -8.717222  -1.576975  8.319389  4.075369  -13.134978  2.071084  -0.153617  0.019177  -0.443912  -0.420232  0.049597  -1.213505  -0.420232  0.049597  -1.213506  -7.492217  8.980508  22.323616  92.671035  44.637847  145.421836  -6.839486  0.028395  41.524094  68.458437  4.811164  6.680642  17.163999  -20.39316  14.393136  48.683273  55.768389  -5.943136  -4.126836  -8.286727  -42.98412  74.029612  7.773908  -1.014178  3.968942  -3.978803  9.075303  3.035473  -2.926099  6.829946  
14.636033  95.694862  -3.631555  179.506725  11.503197  83.07798  2.897653  -15.532093  5.704848  11.936878  0.045804  6.402164  -6.223628  15.619879  0.709046  -9.422807  16.931489  3.028769  -8.683191  -1.573608  8.337492  4.044537  -13.120137  2.058948  -0.15229  0.019965  -0.440247  -0.416616  0.051798  -1.203493  -0.416616  0.051798  -1.203493  -7.500984  8.986134  22.31603  92.627081  44.656376  145.384302  -6.900022  0.067904  41.422151  68.502513  4.767067  6.866876  17.180683  -20.388882  14.378801  48.66814  55.772416  -5.946013  -4.128772  -8.287112  -42.974404  74.065283  7.702608  -1.023315  3.984792  -3.965583  9.065659  3.047106  -2.916008  6.822754  
14.638563  95.70919  -3.570073  179.467374  11.551677  83.072831  2.931079  -15.471585  5.711855  11.997718  0.027082  6.376976  -6.239572  15.606899  0.757203  -9.332004  16.946443  3.010809  -8.579827  -1.607936  8.28973  3.908923  -13.100779  2.118874  -0.153634  0.024792  -0.43713  -0.420375  0.064987  -1.195005  -0.420375  0.064987  -1.195005  -7.519568  8.994579  22.310693  92.71602  44.713409  145.3936  -6.906681  0.122454  41.349492  68.583715  4.800149  6.958371  17.200547  -20.381502  14.363153  48.709305  55.778451  -5.915214  -4.148049  -8.280195  -42.968926  74.049911  7.627836  -1.068238  4.029137  -3.953112  9.049722  3.080076  -2.9061  6.811036  
14.672536  95.718155  -3.572285  179.436747  11.583302  83.065336  2.919883  -15.424107  5.735043  11.994197  0.018518  6.358535  -6.187978  15.60036  0.804234  -9.300518  16.957599  2.99567  -8.523965  -1.620836  8.325496  3.854115  -13.072696  2.101727  -0.1518  0.025726  -0.436908  -0.415381  0.067574  -1.194401  -0.415381  0.067574  -1.194401  -7.532459  8.992888  22.318722  92.698965  44.743447  145.36578  -6.937549  0.1502  41.253143  68.620523  4.787649  7.108973  17.211001  -20.382008  14.358298  48.692838  55.77992  -5.920173  -4.175724  -8.284102  -42.956796  74.091316  7.537843  -1.097908  4.054205  -3.943196  9.048107  3.098721  -2.898301  6.80994  
14.685992  95.736282  -3.503007  179.394818  11.675117  83.079965  3.040569  -15.381062  5.700764  12.104192  0.014504  6.328  -6.288897  15.576451  0.882658  -9.190497  16.966081  2.943343  -8.331316  -1.684367  8.279544  3.637446  -13.026349  2.170245  -0.144425  0.029433  -0.437401  -0.395289  0.077836  -1.195764  -0.395289  0.077836  -1.195764  -7.561845  9.003166  22.318076  92.764511  44.797497  145.370732  -6.90191  0.1973  41.191958  68.633452  4.902329  6.976702  17.198981  -20.378056  14.350867  48.734056  55.78629  -5.893733  -4.222123  -8.279139  -42.948133  74.070159  7.426784  -1.178913  4.089054  -3.931394  9.039474  3.124629  -2.88899  6.803634  
14.738521  95.748962  -3.501271  179.360612  11.726468  83.075401  3.032931  -15.336277  5.7199  12.064823  0.023544  6.318141  -6.18343  15.563528  0.945614  -9.142258  16.963035  2.912369  -8.213246  -1.699777  8.335322  3.5197  -12.986395  2.147348  -0.140257  0.02836  -0.436059  -0.383875  0.074988  -1.192086  -0.383875  0.074988  -1.192086  -7.582829  9.012061  22.307512  92.759675  44.833057  145.340773  -6.913531  0.234495  41.096841  68.647061  4.931383  6.903662  17.212939  -20.369524  14.335617  48.70532  55.785276  -5.914879  -4.271215  -8.280892  -42.937075  74.1189  7.289128  -1.256102  4.130802  -3.918921  9.035164  3.15573  -2.879046  6.800611  
14.764499  95.770004  -3.386363  179.326912  11.863841  83.101195  3.316755  -15.301111  5.618742  12.027788  -0.001343  6.305926  -6.217896  15.543692  1.05093  -8.920791  16.920267  2.808681  -8.013853  -1.741904  8.351271  3.233666  -12.927787  2.217531  -0.12916  0.028827  -0.435462  -0.353551  0.076468  -1.190443  -0.353551  0.076468  -1.190443  -7.595731  9.020702  22.283731  92.841596  44.881575  145.375581  -6.948671  0.282895  40.921441  68.687576  5.039782  6.629844  17.211052  -20.358547  14.315593  48.714222  55.789287  -5.909465  -4.29295  -8.277208  -42.971862  74.085993  7.095706  -1.32604  4.189437  -3.908193  9.021065  3.199455  -2.870229  6.790368  
